{
  "accessors": [
    {
      "bufferView": 2,
      "componentType": 5126,
      "count": 65532,
      "max": [
        17.031892776489258,
        1.8524160385131836,
        1.5888534784317017
      ],
      "min": [
        -16.991050720214844,
        -0.47034353017807007,
        -1.6543842554092407
      ],
      "type": "VEC3"
    },
    {
      "bufferView": 2,
      "byteOffset": 786384,
      "componentType": 5126,
      "count": 65532,
      "max": [
        1.0,
        1.0,
        1.0
      ],
      "min": [
        -1.0,
        -1.0,
        -1.0
      ],
      "type": "VEC3"
    },
    {
      "bufferView": 1,
      "componentType": 5126,
      "count": 65532,
      "max": [
        0.9404244422912598,
        1.0
      ],
      "min": [
        0.0,
        0.0
      ],
      "type": "VEC2"
    },
    {
      "bufferView": 0,
      "componentType": 5125,
      "count": 99150,
      "type": "SCALAR"
    },
    {
      "bufferView": 2,
      "byteOffset": 1572768,
      "componentType": 5126,
      "count": 19749,
      "max": [
        -3.746213912963867,
        1.8524160385131836,
        1.5888534784317017
      ],
      "min": [
        -17.01544189453125,
        -0.4693499207496643,
        -1.6543842554092407
      ],
      "type": "VEC3"
    },
    {
      "bufferView": 2,
      "byteOffset": 1809756,
      "componentType": 5126,
      "count": 19749,
      "max": [
        1.0,
        0.9999765753746033,
        1.0
      ],
      "min": [
        -1.0,
        -0.9999767541885376,
        -1.0
      ],
      "type": "VEC3"
    },
    {
      "bufferView": 1,
      "byteOffset": 524256,
      "componentType": 5126,
      "count": 19749,
      "max": [
        0.9404244422912598,
        1.0
      ],
      "min": [
        0.0,
        0.0
      ],
      "type": "VEC2"
    },
    {
      "bufferView": 0,
      "byteOffset": 396600,
      "componentType": 5125,
      "count": 29808,
      "type": "SCALAR"
    },
    {
      "bufferView": 2,
      "byteOffset": 2046744,
      "componentType": 5126,
      "count": 25520,
      "max": [
        16.989181518554688,
        2.1685967445373535,
        1.5705825090408325
      ],
      "min": [
        -16.972732543945313,
        -0.465143620967865,
        -1.6150370836257935
      ],
      "type": "VEC3"
    },
    {
      "bufferView": 2,
      "byteOffset": 2352984,
      "componentType": 5126,
      "count": 25520,
      "max": [
        1.0,
        1.0,
        1.0
      ],
      "min": [
        -1.0,
        -1.0,
        -1.0
      ],
      "type": "VEC3"
    },
    {
      "bufferView": 1,
      "byteOffset": 682248,
      "componentType": 5126,
      "count": 25520,
      "max": [
        0.8786618709564209,
        1.0
      ],
      "min": [
        0.0,
        0.0
      ],
      "type": "VEC2"
    },
    {
      "bufferView": 0,
      "byteOffset": 515832,
      "componentType": 5125,
      "count": 39474,
      "type": "SCALAR"
    }
  ],
  "asset": {
    "extras": {
      "author": "sofmpits (https://sketchfab.com/sofmpits)",
      "license": "CC-BY-4.0 (http://creativecommons.org/licenses/by/4.0/)",
      "source": "https://sketchfab.com/3d-models/bridge-6d43d677fce247208221c94f1c273805",
      "title": "Bridge"
    },
    "generator": "Sketchfab-13.83.0",
    "version": "2.0"
  },
  "bufferViews": [
    {
      "buffer": 0,
      "byteLength": 673728,
      "name": "floatBufferViews",
      "target": 34963
    },
    {
      "buffer": 0,
      "byteLength": 886408,
      "byteOffset": 673728,
      "byteStride": 8,
      "name": "floatBufferViews",
      "target": 34962
    },
    {
      "buffer": 0,
      "byteLength": 2659224,
      "byteOffset": 1560136,
      "byteStride": 12,
      "name": "floatBufferViews",
      "target": 34962
    }
  ],
  "buffers": [
    {
      "byteLength": 4219360,
      "uri": "scene.bin"
    }
  ],
  "materials": [
    {
      "doubleSided": true,
      "name": "rope",
      "pbrMetallicRoughness": {
        "baseColorFactor": [
          0.367241,
          0.0587569,
          0.0161374,
          1.0
        ],
        "metallicFactor": 0.0,
        "roughnessFactor": 0.5
      }
    },
    {
      "doubleSided": true,
      "name": "facade"
    }
  ],
  "meshes": [
    {
      "name": "Object_0",
      "primitives": [
        {
          "attributes": {
            "NORMAL": 1,
            "POSITION": 0,
            "TEXCOORD_0": 2
          },
          "indices": 3,
          "material": 0,
          "mode": 4
        }
      ]
    },
    {
      "name": "Object_1",
      "primitives": [
        {
          "attributes": {
            "NORMAL": 5,
            "POSITION": 4,
            "TEXCOORD_0": 6
          },
          "indices": 7,
          "material": 0,
          "mode": 4
        }
      ]
    },
    {
      "name": "Object_2",
      "primitives": [
        {
          "attributes": {
            "NORMAL": 9,
            "POSITION": 8,
            "TEXCOORD_0": 10
          },
          "indices": 11,
          "material": 1,
          "mode": 4
        }
      ]
    }
  ],
  "nodes": [
    {
      "children": [
        1
      ],
      "matrix": [
        1.0,
        0.0,
        0.0,
        0.0,
        0.0,
        2.220446049250313e-16,
        -1.0,
        0.0,
        0.0,
        1.0,
        2.220446049250313e-16,
        0.0,
        0.0,
        0.0,
        0.0,
        1.0
      ],
      "name": "Sketchfab_model"
    },
    {
      "children": [
        2
      ],
      "name": "root"
    },
    {
      "children": [
        3
      ],
      "matrix": [
        1.0,
        0.0,
        0.0,
        0.0,
        0.0,
        2.220446049250313e-16,
        1.0,
        0.0,
        0.0,
        -1.0,
        2.220446049250313e-16,
        0.0,
        0.0,
        0.0,
        0.0,
        1.0
      ],
      "name": "GLTF_SceneRootNode"
    },
    {
      "children": [
        4,
        5,
        6
      ],
      "matrix": [
        0.14199940553333112,
        0.0,
        0.9898667429650219,
        0.0,
        -0.0,
        1.0,
        0.0,
        0.0,
        -0.9898667429650219,
        -0.0,
        0.14199940553333112,
        0.0,
        -22.82582664489746,
        -5.4329938888549805,
        -0.19390609860420227,
        1.0
      ],
      "name": "Circle_2"
    },
    {
      "mesh": 0,
      "name": "Object_4"
    },
    {
      "mesh": 1,
      "name": "Object_5"
    },
    {
      "mesh": 2,
      "name": "Object_6"
    }
  ],
  "scene": 0,
  "scenes": [
    {
      "name": "Sketchfab_Scene",
      "nodes": [
        0
      ]
    }
  ]
}
