{
	"asset":{
		"generator":"Khronos glTF Blender I/O v3.6.28",
		"version":"2.0"
	},
	"scene":0,
	"scenes":[
		{
			"name":"Scene",
			"nodes":[
				6
			]
		}
	],
	"nodes":[
		{
			"mesh":0,
			"name":"Bou\ufffd\ufffde_Baked_Bou\ufffd\ufffde_Baked_0"
		},
		{
			"mesh":1,
			"name":"Bou\ufffd\ufffde_Baked_Bou\ufffd\ufffde_Baked_0.001"
		},
		{
			"mesh":2,
			"name":"Bou\ufffd\ufffde_Baked_Bou\ufffd\ufffde_Baked_0.002"
		},
		{
			"children":[
				0,
				1,
				2
			],
			"name":"Bou\ufffd\ufffde_Baked",
			"rotation":[
				-0.70710688829422,
				0,
				0,
				0.7071066498756409
			],
			"scale":[
				100,
				99.99998474121094,
				99.99998474121094
			],
			"translation":[
				0,
				0,
				248.07395935058594
			]
		},
		{
			"children":[
				3
			],
			"name":"RootNode"
		},
		{
			"children":[
				4
			],
			"name":"8044081c9be34d758f814436bee3bddc.fbx",
			"rotation":[
				0.70710688829422,
				0,
				0,
				0.7071066498756409
			],
			"scale":[
				0.009999999776482582,
				0.009999999776482582,
				0.009999999776482582
			]
		},
		{
			"children":[
				5
			],
			"name":"Sketchfab_model",
			"rotation":[
				-0.70710688829422,
				0,
				0,
				0.7071066498756409
			]
		}
	],
	"materials":[
		{
			"doubleSided":true,
			"name":"Boue_Baked",
			"pbrMetallicRoughness":{
				"baseColorTexture":{
					"index":0
				},
				"metallicRoughnessTexture":{
					"index":1
				}
			}
		}
	],
	"meshes":[
		{
			"name":"Bou\ufffd\ufffde_Baked_Bou\ufffd\ufffde_Baked_0",
			"primitives":[
				{
					"attributes":{
						"POSITION":0,
						"NORMAL":1,
						"TEXCOORD_0":2,
						"TEXCOORD_1":3,
						"TEXCOORD_2":4
					},
					"indices":5,
					"material":0
				}
			]
		},
		{
			"name":"Bou\ufffd\ufffde_Baked_Bou\ufffd\ufffde_Baked_0.001",
			"primitives":[
				{
					"attributes":{
						"POSITION":6,
						"NORMAL":7,
						"TEXCOORD_0":8,
						"TEXCOORD_1":9,
						"TEXCOORD_2":10
					},
					"indices":11,
					"material":0
				}
			]
		},
		{
			"name":"Bou\ufffd\ufffde_Baked_Bou\ufffd\ufffde_Baked_0.002",
			"primitives":[
				{
					"attributes":{
						"POSITION":12,
						"NORMAL":13,
						"TEXCOORD_0":14,
						"TEXCOORD_1":15,
						"TEXCOORD_2":16
					},
					"indices":17,
					"material":0
				}
			]
		}
	],
	"textures":[
		{
			"sampler":0,
			"source":0
		},
		{
			"sampler":0,
			"source":1
		}
	],
	"images":[
		{
			"mimeType":"image/png",
			"name":"Boue_Baked_baseColor",
			"uri":"Boue_Baked_baseColor.png"
		},
		{
			"mimeType":"image/png",
			"name":"Boue_Baked_metallicRoughness",
			"uri":"Boue_Baked_metallicRoughness.png"
		}
	],
	"accessors":[
		{
			"bufferView":0,
			"componentType":5126,
			"count":66149,
			"max":[
				0.9202063083648682,
				1.124426007270813,
				5.517904281616211
			],
			"min":[
				-1.0792819261550903,
				-0.8750621676445007,
				-1.2771379947662354
			],
			"type":"VEC3"
		},
		{
			"bufferView":1,
			"componentType":5126,
			"count":66149,
			"type":"VEC3"
		},
		{
			"bufferView":2,
			"componentType":5126,
			"count":66149,
			"type":"VEC2"
		},
		{
			"bufferView":3,
			"componentType":5126,
			"count":66149,
			"type":"VEC2"
		},
		{
			"bufferView":4,
			"componentType":5126,
			"count":66149,
			"type":"VEC2"
		},
		{
			"bufferView":5,
			"componentType":5125,
			"count":342552,
			"type":"SCALAR"
		},
		{
			"bufferView":6,
			"componentType":5126,
			"count":88339,
			"max":[
				0.897322952747345,
				1.1259762048721313,
				5.062079429626465
			],
			"min":[
				-1.0808320045471191,
				-0.8766121864318848,
				0.8667843341827393
			],
			"type":"VEC3"
		},
		{
			"bufferView":7,
			"componentType":5126,
			"count":88339,
			"type":"VEC3"
		},
		{
			"bufferView":8,
			"componentType":5126,
			"count":88339,
			"type":"VEC2"
		},
		{
			"bufferView":9,
			"componentType":5126,
			"count":88339,
			"type":"VEC2"
		},
		{
			"bufferView":10,
			"componentType":5126,
			"count":88339,
			"type":"VEC2"
		},
		{
			"bufferView":11,
			"componentType":5125,
			"count":217062,
			"type":"SCALAR"
		},
		{
			"bufferView":12,
			"componentType":5126,
			"count":74394,
			"max":[
				0.9675330519676208,
				1.1717525720596313,
				5.069997310638428
			],
			"min":[
				-1.1266087293624878,
				-0.9223889112472534,
				-0.9304208159446716
			],
			"type":"VEC3"
		},
		{
			"bufferView":13,
			"componentType":5126,
			"count":74394,
			"type":"VEC3"
		},
		{
			"bufferView":14,
			"componentType":5126,
			"count":74394,
			"type":"VEC2"
		},
		{
			"bufferView":15,
			"componentType":5126,
			"count":74394,
			"type":"VEC2"
		},
		{
			"bufferView":16,
			"componentType":5126,
			"count":74394,
			"type":"VEC2"
		},
		{
			"bufferView":17,
			"componentType":5125,
			"count":181644,
			"type":"SCALAR"
		}
	],
	"bufferViews":[
		{
			"buffer":0,
			"byteLength":793788,
			"byteOffset":0,
			"target":34962
		},
		{
			"buffer":0,
			"byteLength":793788,
			"byteOffset":793788,
			"target":34962
		},
		{
			"buffer":0,
			"byteLength":529192,
			"byteOffset":1587576,
			"target":34962
		},
		{
			"buffer":0,
			"byteLength":529192,
			"byteOffset":2116768,
			"target":34962
		},
		{
			"buffer":0,
			"byteLength":529192,
			"byteOffset":2645960,
			"target":34962
		},
		{
			"buffer":0,
			"byteLength":1370208,
			"byteOffset":3175152,
			"target":34963
		},
		{
			"buffer":0,
			"byteLength":1060068,
			"byteOffset":4545360,
			"target":34962
		},
		{
			"buffer":0,
			"byteLength":1060068,
			"byteOffset":5605428,
			"target":34962
		},
		{
			"buffer":0,
			"byteLength":706712,
			"byteOffset":6665496,
			"target":34962
		},
		{
			"buffer":0,
			"byteLength":706712,
			"byteOffset":7372208,
			"target":34962
		},
		{
			"buffer":0,
			"byteLength":706712,
			"byteOffset":8078920,
			"target":34962
		},
		{
			"buffer":0,
			"byteLength":868248,
			"byteOffset":8785632,
			"target":34963
		},
		{
			"buffer":0,
			"byteLength":892728,
			"byteOffset":9653880,
			"target":34962
		},
		{
			"buffer":0,
			"byteLength":892728,
			"byteOffset":10546608,
			"target":34962
		},
		{
			"buffer":0,
			"byteLength":595152,
			"byteOffset":11439336,
			"target":34962
		},
		{
			"buffer":0,
			"byteLength":595152,
			"byteOffset":12034488,
			"target":34962
		},
		{
			"buffer":0,
			"byteLength":595152,
			"byteOffset":12629640,
			"target":34962
		},
		{
			"buffer":0,
			"byteLength":726576,
			"byteOffset":13224792,
			"target":34963
		}
	],
	"samplers":[
		{
			"magFilter":9729,
			"minFilter":9987
		}
	],
	"buffers":[
		{
			"byteLength":13951368,
			"uri":"buoy.bin"
		}
	]
}
